<?xml version="1.0" encoding="utf-8"?>
<!-- Generator: Adobe Illustrator 18.1.1, SVG Export Plug-In . SVG Version: 6.00 Build 0)  -->
<svg version="1.1" id="Ebene_2" xmlns="http://www.w3.org/2000/svg" xmlns:xlink="http://www.w3.org/1999/xlink" x="0px" y="0px"
	 viewBox="0 0 70 60" enable-background="new 0 0 70 60" xml:space="preserve">
<path fill="#FFFFFF" d="M52.4,22.3c-1.2-2.9-3-5.6-5.3-7.8c-2.3-2.3-4.9-4-7.8-5.3c-3-1.3-6.3-1.9-9.6-1.9s-6.6,0.7-9.6,1.9
	c-2.9,1.2-5.6,3-7.8,5.3c-2.3,2.3-4,4.9-5.3,7.8c-1.3,3-1.9,6.3-1.9,9.6c0,3.3,0.7,6.6,1.9,9.6c1.2,2.9,3,5.6,5.3,7.8s4.9,4,7.8,5.3
	c3,1.3,6.3,1.9,9.6,1.9s6.6-0.7,9.6-1.9c2.9-1.2,5.6-3,7.8-5.3s4-4.9,5.3-7.8c1.3-3,1.9-6.3,1.9-9.6C54.3,28.6,53.7,25.4,52.4,22.3z
	 M42.6,42.8c-1.3-0.8-2-1.5-2-3s1.4-3.7,2.3-5.3c0.8-1.5,2.1-4.2,4.9-3.1c0.4,0.1,0.7,0.3,0.9,0.5c0,4.5-1.6,8.7-4.3,12
	C43.8,43.6,43.2,43.2,42.6,42.8z M29.7,12.9c8.8,0,16.2,6,18.4,14.1c-5.5-2.9-11.7-4.6-18.3-4.6c-6.7,0-13,1.7-18.5,4.7
	C13.4,18.9,20.9,12.9,29.7,12.9z M33.2,31c0,1.9-1.6,3.5-3.5,3.5S26.1,33,26.1,31s1.6-3.5,3.5-3.5S33.2,29.1,33.2,31z M16.7,42.8
	c-0.5,0.3-1.2,0.7-1.8,1.1c-2.7-3.3-4.3-7.4-4.3-12c0.2-0.2,0.5-0.4,0.9-0.5c2.8-1.1,4.1,1.6,4.9,3.1c0.9,1.6,2.3,3.8,2.3,5.3
	S18,42,16.7,42.8z M29.7,51c-4.4,0-8.4-1.5-11.7-4c3.4-2.1,7.4-3.4,11.7-3.4c4.3,0,8.3,1.2,11.6,3.3C38.1,49.5,34.1,51,29.7,51z"/>
</svg>
