<?xml version="1.0" encoding="utf-8"?>
<!-- Generator: Adobe Illustrator 18.1.1, SVG Export Plug-In . SVG Version: 6.00 Build 0)  -->
<svg version="1.1" id="Ebene_1" xmlns="http://www.w3.org/2000/svg" xmlns:xlink="http://www.w3.org/1999/xlink" x="0px" y="0px"
	 viewBox="0 0 70 60" enable-background="new 0 0 70 60" xml:space="preserve">
<g>
	<path fill="#FFFFFF" d="M17.2,29.5c1.6,2.5,4.4,4.1,7.6,4.1c3.2,0,6-1.7,7.6-4.2l-7.6-3.1L17.2,29.5z"/>
	<path fill="#FFFFFF" d="M25.2,15.1l1.2,8.4l6.4,5.1c0.6-1.3,1-2.7,1-4.3C33.9,19.4,30,15.3,25.2,15.1z"/>
	<path fill="#FFFFFF" d="M24.3,15.1c-4.8,0.2-8.7,4.3-8.7,9.3c0,1.6,0.4,3,1.1,4.3l6.5-5.2L24.3,15.1z"/>
	<path fill="#FFFFFF" d="M4,6v36.7h15.9l3,17.2h3.8l3-17.2h15.9V6H4z M24.7,35.3c-5.9,0-10.8-4.9-10.8-11c0-6,4.8-11,10.8-11
		c5.9,0,10.8,4.9,10.8,11C35.5,30.4,30.7,35.3,24.7,35.3z"/>
</g>
</svg>
